# xmcd
#
# Track frame offsets:
#	150
#	11645
#	22211
#	37566
#	53414
#	75826
#	88234
#	99398
#	109093
#	122101
#	133343
#	148962
#	161411
#	175627
#	186817
#	201075
#	214747
#
# Disc length: 3049 seconds
#
# Revision: 1
# Processed by: cddbd v1.5.2PL0 Copyright (c) Steve Scherf et al.
# Submitted via: EasyCDDAExtractor 11.9.9.666
#
DISCID=de0be711
DTITLE=Various Artist - Love Songs from the 50's CD3 of 5
DYEAR=1900
DGENRE=Blues
TTITLE0=Elvis Presley - Trying get to you
TTITLE1=Dean Martin - Have a little sympathy
TTITLE2=Louis Armstrong - High society
TTITLE3=Perry Como - Blue room
TTITLE4=Louis Armstrong - Aunt hagar's blues
TTITLE5=Frank Sinatra - How about You?
TTITLE6=Billie Holiday - How could you?
TTITLE7=Pat Boone - Beg your pardon
TTITLE8=The Platters - I'm sorry
TTITLE9=Frank Sinatra - It's a lovely day tomorrow
TTITLE10=Nat King Cole - Unforgettable
TTITLE11=Sammy Davis Jr, - Can't you see I've got the blues
TTITLE12=Frank Sinatra - London by night
TTITLE13=Pat Boone - Tittu frutti
TTITLE14=Frank Sinatra - My melancholy baby
TTITLE15=Dinah Washington - Stormy weather
TTITLE16=Frank Sinatra - A lovely way to spend an evening
EXTD=
EXTT0=
EXTT1=
EXTT2=
EXTT3=
EXTT4=
EXTT5=
EXTT6=
EXTT7=
EXTT8=
EXTT9=
EXTT10=
EXTT11=
EXTT12=
EXTT13=
EXTT14=
EXTT15=
EXTT16=
PLAYORDER=
